<mxfile host="app.diagrams.net" agent="Mozilla/5.0 (Windows NT 10.0; Win64; x64) AppleWebKit/537.36 (KHTML, like Gecko) Chrome/138.0.0.0 Safari/537.36" version="28.0.7">
  <diagram name="第 1 页" id="mfO57dySYddAwhKax9KO">
    <mxGraphModel dx="786" dy="417" grid="1" gridSize="10" guides="1" tooltips="1" connect="1" arrows="1" fold="1" page="1" pageScale="1" pageWidth="827" pageHeight="1169" math="0" shadow="0">
      <root>
        <mxCell id="0" />
        <mxCell id="1" style="" parent="0" />
        <mxCell id="EGR6_VMZ6ghK5i2W8efW-4" value="" style="rounded=1;whiteSpace=wrap;html=1;labelBackgroundColor=none;arcSize=50;fillColor=#09555B;strokeColor=#BAC8D3;fontColor=#EEEEEE;" vertex="1" parent="1">
          <mxGeometry x="120" y="160" width="140" height="70" as="geometry" />
        </mxCell>
        <mxCell id="EGR6_VMZ6ghK5i2W8efW-5" value="" style="rounded=1;whiteSpace=wrap;html=1;labelBackgroundColor=none;arcSize=50;fillColor=#09555B;strokeColor=#BAC8D3;fontColor=#EEEEEE;" vertex="1" parent="1">
          <mxGeometry x="300" y="80" width="140" height="70" as="geometry" />
        </mxCell>
        <mxCell id="K9tHLoS2AqFQMkOLBlvC-2" value="" style="edgeStyle=orthogonalEdgeStyle;rounded=0;orthogonalLoop=1;jettySize=auto;html=1;strokeColor=#0B4D6A;" edge="1" parent="1" source="EGR6_VMZ6ghK5i2W8efW-6" target="K9tHLoS2AqFQMkOLBlvC-1">
          <mxGeometry relative="1" as="geometry">
            <Array as="points">
              <mxPoint x="590" y="230" />
              <mxPoint x="590" y="120" />
              <mxPoint x="710" y="120" />
              <mxPoint x="710" y="200" />
            </Array>
          </mxGeometry>
        </mxCell>
        <mxCell id="EGR6_VMZ6ghK5i2W8efW-6" value="" style="shape=cylinder3;whiteSpace=wrap;html=1;boundedLbl=1;backgroundOutline=1;size=15;direction=south;labelBackgroundColor=none;fillColor=#09555B;strokeColor=#BAC8D3;fontColor=#EEEEEE;" vertex="1" parent="1">
          <mxGeometry x="360" y="200" width="150" height="60" as="geometry" />
        </mxCell>
        <mxCell id="EGR6_VMZ6ghK5i2W8efW-8" value="&lt;h1&gt;&lt;font face=&quot;Comic Sans MS&quot;&gt;MySQL&lt;/font&gt;&lt;/h1&gt;" style="text;strokeColor=none;align=center;fillColor=none;html=1;verticalAlign=middle;whiteSpace=wrap;rounded=0;fontColor=#EEEEEE;" vertex="1" parent="1">
          <mxGeometry x="380" y="210" width="90" height="40" as="geometry" />
        </mxCell>
        <mxCell id="K9tHLoS2AqFQMkOLBlvC-4" value="" style="edgeStyle=orthogonalEdgeStyle;rounded=0;orthogonalLoop=1;jettySize=auto;html=1;strokeColor=#0B4D6A;" edge="1" parent="1" source="K9tHLoS2AqFQMkOLBlvC-1">
          <mxGeometry relative="1" as="geometry">
            <mxPoint x="850" y="150" as="targetPoint" />
          </mxGeometry>
        </mxCell>
        <mxCell id="K9tHLoS2AqFQMkOLBlvC-1" value="" style="shape=waypoint;sketch=0;size=6;pointerEvents=1;points=[];fillColor=#09555B;resizable=0;rotatable=0;perimeter=centerPerimeter;snapToPoint=1;strokeColor=#BAC8D3;fontColor=#EEEEEE;labelBackgroundColor=none;" vertex="1" parent="1">
          <mxGeometry x="770" y="140" width="20" height="20" as="geometry" />
        </mxCell>
      </root>
    </mxGraphModel>
  </diagram>
</mxfile>
